<svg xmlns="http://www.w3.org/2000/svg" width="1028.761" height="1327.956" viewBox="0 0 1028.761 1327.956">
  <g id="Group_1" data-name="Group 1" transform="translate(-206.285 -0.556)">
    <path id="Path_12" data-name="Path 12" d="M707,665a231.784,231.784,0,0,1-47-20.637A111.364,111.364,0,0,1,647.073,635a81.869,81.869,0,0,0-7.953-9.467c-3.907-4.163-9.017-7.181-12.95-11.53A168.163,168.163,0,0,1,592.8,559c-27.814-76.641,7.518-162.178,78.2-201.336,16.378-9.072,73.005,2.313,85.49,3.779,19.778,2.322,71.28-2.068,76.976,0,5.432,1.973,11.089,24.3,14.105,24.987a87.161,87.161,0,0,1,12.859,7.935c-6.085-25.691-79.923-201.58-302.515-173.854C448.367,240.4,370.532,327.963,357.96,417.8c-9.262,93.155,8.535,164.19,84.226,222.309,37.43,32.424,165.644,53.579,165.644,53.579S703.2,667.6,707,665Z" transform="translate(60 -217)" fill="#fe5200"/>
    <path id="Union_1" data-name="Union 1" d="M-8355.469-3118.349l.092-.1c-23.7-13.966-76.692-44.122-84.554-126.922,0-2.077-15.344-108.89,72.768-165.042.2.068,6.271-5.6,20.082-11.274,19.607-8.049,54.815-16.1,110.96-7.726,46.854,11.789,68.528,30.382,78.624,43.918,7.964,7.926,19.588,24.924,19.834,24.924,4.4,7.113,5.41,8.346,5.582,8.424,4.7,17.735,6.2,28.638,6.851,47.359a155.765,155.765,0,0,1-3.923,32.1c-2.067,8.377-13.227,29.481-19.913,38.573-6.926,13.192-52.532,49.029-64.078,56.1-11.106,6.8-37.4,20.237-50.676,25.256-12.136,4.482-41.285,12.305-57.5,21.963-8.973,4.9-23.609,19-23.609,19Zm223.388-233.8-.043-.165c.008-.008.038.038.057.083s.026.086,0,.086A.037.037,0,0,1-8132.081-3352.145Z" transform="translate(9052.321 3530.108)" fill="#ffd701"/>
    <path id="Path_73" data-name="Path 73" d="M605.719,693.172S651.053,701.8,663,703.963c24.086,4.363,49.189,10.723,72,19.7,3.889,1.529,24.481,9.69,31,12.489,10.892,4.678,21.62,10.1,32,15.826,7.578,4.458,7.811,5.1,12,10.024a500.412,500.412,0,0,0-57.047,3.389C629.437,791.418,568.987,853.44,524.279,985.484c-33.271,129.964-19.754,221.459-19.747,223.542,3.119,64.462,15.736,103.428,37,189.512,32.819,129.39-68.02,139.825-80.706,136.915-9.578-2.087-15.848-12.554-15.848-12.554a26.483,26.483,0,0,1-.682,12.554c-4.9,5.505-22.763,6.4-24.111,6.812,9.115,3.83,62.169,3.826,70.81,2.276,38.1-6.86,72.005-37.5,72.985-77.54,1.146-54.116-11.119-97.61-16.873-123-8.045-38.937-50.216-167.207-6.148-348,8.713-29.547,40.163-121.43,101.206-162.7,3.307-2.583,100.7-91.99,217.465-46.289,50.387,17.482,134.917,102.32,159.554,307.641,6,52.147,14,164.117-28.39,267.288C975.6,1408.331,886.272,1524.85,886,1534c6.62-.84,11.792-3.41,18-5.55a335.557,335.557,0,0,0,41-16.87c47.851-23.93,91.5-56.42,125.92-97.58,31.81-38.03,57.32-79.86,75.63-126,20.64-52.03,29.45-107.33,29.45-163,0-16.32.4-32.76-1.17-49a448.411,448.411,0,0,0-45.27-156c-25.06-49.942-60.72-94.14-100.56-132.985-14.23-13.879-31.414-25.651-48-36.52-44.678-29.277-95.2-50.633-147-63.6-24.751-6.2-49.928-11.272-75-15.57-9.1-1.561-52.109-6.638-52.109-6.638Z" transform="translate(59 -217)" fill="#fe5200"/>
    <path id="Path_253" data-name="Path 253" d="M437,1542c8.262-4.512,8.281-13.19,7.272-18-.946-4.52-4.019-8.88-6.014-13-3.333-6.89-6.568-13.92-9.458-21-19.031-46.65-35.8-96.01-43.525-146-2.934-18.99-6.873-37.86-8.772-57-1.054-10.63-2.515-21.34-3.319-32-.4-5.27-1.932-21.18-2.13-24.01-2.119-30.28-.257-61.81,1.856-91.99,5.569-79.52,19.071-158.419,48.64-233,12.615-31.817,27.174-63.345,45.59-92.285,4.214-6.623,8.425-13.244,12.885-19.715,2.59-3.756,11.254-17.828,12.975-22-3.95.76-7.093-.525-11-.53-14.49-.019-29.585.259-44,1.7-28.288,2.828-57.193,11.289-83,23.138C244.314,847.125,175.5,958.129,153.46,1075c-8.226,43.61-8.408,87.9-5.37,132,1.87,27.16,8.431,55,16.14,81,25.656,86.53,76.961,165.31,153.77,214.69a279.593,279.593,0,0,0,82,35.78C412.594,1541.66,426.072,1545.329,437,1542Z" transform="translate(60 -217)" fill="#fe5200"/>
  </g>
</svg>
